<svg xmlns="http://www.w3.org/2000/svg">
  <defs>
    <symbol id="checkmark" viewBox="0 0 24 24">
      <path fill-rule="evenodd" d="M19.916 4.626a.75.75 0 0 1 .208 1.04l-9 13.5a.75.75 0 0 1-1.154.114l-6-6a.75.75 0 0 1 1.06-1.06l5.353 5.353 8.493-12.74a.75.75 0 0 1 1.04-.207Z" clip-rule="evenodd" fill="currentColor" />
    </symbol>
    <symbol id="clipboard" viewBox="0 0 24 24">
      <path d="M7.5 3.375c0-1.036.84-1.875 1.875-1.875h.375a3.75 3.75 0 0 1 3.75 3.75v1.875C13.5 8.161 14.34 9 15.375 9h1.875A3.75 3.75 0 0 1 21 12.75v3.375C21 17.16 20.16 18 19.125 18h-9.75A1.875 1.875 0 0 1 7.5 16.125V3.375Z" fill="currentColor" />
      <path d="M15 5.25a5.23 5.23 0 0 0-1.279-3.434 9.768 9.768 0 0 1 6.963 6.963A5.23 5.23 0 0 0 17.25 7.5h-1.875A.375.375 0 0 1 15 7.125V5.25ZM4.875 6H6v10.125A3.375 3.375 0 0 0 9.375 19.5H16.5v1.125c0 1.035-.84 1.875-1.875 1.875h-9.75A1.875 1.875 0 0 1 3 20.625V7.875C3 6.839 3.84 6 4.875 6Z" fill="currentColor" />
    </symbol>
    <symbol id="download" viewBox="0 0 24 24">
      <path stroke-linecap="round" stroke-linejoin="round" d="M3 16.5v2.25A2.25 2.25 0 0 0 5.25 21h13.5A2.25 2.25 0 0 0 21 18.75V16.5M16.5 12 12 16.5m0 0L7.5 12m4.5 4.5V3"  fill="none" stroke-width="1.5" stroke="currentColor" />
    </symbol>
    <symbol id="folder" viewBox="0 0 24 24">
      <path d="M19.5 21a3 3 0 0 0 3-3v-4.5a3 3 0 0 0-3-3h-15a3 3 0 0 0-3 3V18a3 3 0 0 0 3 3h15ZM1.5 10.146V6a3 3 0 0 1 3-3h5.379a2.25 2.25 0 0 1 1.59.659l2.122 2.121c.14.141.331.22.53.22H19.5a3 3 0 0 1 3 3v1.146A4.483 4.483 0 0 0 19.5 9h-15a4.483 4.483 0 0 0-3 1.146Z" fill="currentColor" />
    </symbol>
    <symbol id="music" viewBox="0 0 24 24">
      <path fill-rule="evenodd" d="M19.952 1.651a.75.75 0 0 1 .298.599V16.303a3 3 0 0 1-2.176 2.884l-1.32.377a2.553 2.553 0 1 1-1.403-4.909l2.311-.66a1.5 1.5 0 0 0 1.088-1.442V6.994l-9 2.572v9.737a3 3 0 0 1-2.176 2.884l-1.32.377a2.553 2.553 0 1 1-1.402-4.909l2.31-.66a1.5 1.5 0 0 0 1.088-1.442V5.25a.75.75 0 0 1 .544-.721l10.5-3a.75.75 0 0 1 .658.122Z" clip-rule="evenodd" fill="currentColor" />
    </symbol>
    <symbol id="hidden" viewBox="0 0 24 24">
      <path stroke-linecap="round" stroke-linejoin="round" d="M3.98 8.223A10.477 10.477 0 0 0 1.934 12C3.226 16.338 7.244 19.5 12 19.5c.993 0 1.953-.138 2.863-.395M6.228 6.228A10.451 10.451 0 0 1 12 4.5c4.756 0 8.773 3.162 10.065 7.498a10.522 10.522 0 0 1-4.293 5.774M6.228 6.228 3 3m3.228 3.228 3.65 3.65m7.894 7.894L21 21m-3.228-3.228-3.65-3.65m0 0a3 3 0 1 0-4.243-4.243m4.242 4.242L9.88 9.88" fill="none" stroke-width="1.5" stroke="currentColor" />
    </symbol>
    <symbol id="x" viewBox="0 0 20 20">
      <path fill-rule="evenodd" d="M10 18a8 8 0 1 0 0-16 8 8 0 0 0 0 16ZM8.28 7.22a.75.75 0 0 0-1.06 1.06L8.94 10l-1.72 1.72a.75.75 0 1 0 1.06 1.06L10 11.06l1.72 1.72a.75.75 0 1 0 1.06-1.06L11.06 10l1.72-1.72a.75.75 0 0 0-1.06-1.06L10 8.94 8.28 7.22Z" clip-rule="evenodd" fill="currentColor" />
    </symbol>
    <symbol id="bookmark" viewBox="0 0 24 24">
      <path fill-rule="evenodd" d="M6.32 2.577a49.255 49.255 0 0 1 11.36 0c1.497.174 2.57 1.46 2.57 2.93V21a.75.75 0 0 1-1.085.67L12 18.089l-7.165 3.583A.75.75 0 0 1 3.75 21V5.507c0-1.47 1.073-2.756 2.57-2.93Z" clip-rule="evenodd" fill="currentColor" />
    </symbol>
    <symbol id="page" viewBox="0 0 24 24">
      <path d="M5.625 1.5c-1.036 0-1.875.84-1.875 1.875v17.25c0 1.035.84 1.875 1.875 1.875h12.75c1.035 0 1.875-.84 1.875-1.875V12.75A3.75 3.75 0 0 0 16.5 9h-1.875a1.875 1.875 0 0 1-1.875-1.875V5.25A3.75 3.75 0 0 0 9 1.5H5.625Z" fill="currentColor" />
      <path d="M12.971 1.816A5.23 5.23 0 0 1 14.25 5.25v1.875c0 .207.168.375.375.375H16.5a5.23 5.23 0 0 1 3.434 1.279 9.768 9.768 0 0 0-6.963-6.963Z" fill="currentColor" />
    </symbol>
    <symbol id="export" viewBox="0 0 24 24">
      <path fill-rule="evenodd" d="M12 2.25c-5.385 0-9.75 4.365-9.75 9.75s4.365 9.75 9.75 9.75 9.75-4.365 9.75-9.75S17.385 2.25 12 2.25Zm4.28 10.28a.75.75 0 0 0 0-1.06l-3-3a.75.75 0 1 0-1.06 1.06l1.72 1.72H8.25a.75.75 0 0 0 0 1.5h5.69l-1.72 1.72a.75.75 0 1 0 1.06 1.06l3-3Z" clip-rule="evenodd" fill="currentColor" />
    </symbol>
  </defs>
</svg>
